<?xml version="1.0" encoding="UTF-8" standalone="no"?>
<svg
   width="544.16998"
   height="544.8642"
   version="1.1"
   id="svg1"
   sodipodi:docname="Vimlogo.svg"
   inkscape:version="1.3.2 (091e20ef0f, 2023-11-25)"
   xmlns:inkscape="http://www.inkscape.org/namespaces/inkscape"
   xmlns:sodipodi="http://sodipodi.sourceforge.net/DTD/sodipodi-0.dtd"
   xmlns="http://www.w3.org/2000/svg"
   xmlns:svg="http://www.w3.org/2000/svg"
   xmlns:rdf="http://www.w3.org/1999/02/22-rdf-syntax-ns#"
   xmlns:cc="http://creativecommons.org/ns#"
   xmlns:dc="http://purl.org/dc/elements/1.1/">
  <defs
     id="defs1" />
  <sodipodi:namedview
     id="namedview1"
     pagecolor="#505050"
     bordercolor="#eeeeee"
     borderopacity="1"
     inkscape:showpageshadow="0"
     inkscape:pageopacity="0"
     inkscape:pagecheckerboard="0"
     inkscape:deskcolor="#505050"
     showgrid="false"
     inkscape:zoom="1.0239382"
     inkscape:cx="240.73719"
     inkscape:cy="301.28772"
     inkscape:window-width="1920"
     inkscape:window-height="995"
     inkscape:window-x="0"
     inkscape:window-y="0"
     inkscape:window-maximized="1"
     inkscape:current-layer="svg1" />
  <metadata
     id="metadata7">
    <rdf:RDF>
      <cc:Work
         rdf:about="">
        <dc:format>image/svg+xml</dc:format>
        <dc:type
           rdf:resource="http://purl.org/dc/dcmitype/StillImage" />
      </cc:Work>
    </rdf:RDF>
  </metadata>
  <path
     id="path2836"
     d="M 274.30534,35.818143 37.515664,272.92608 273.31873,509.04607 510.1084,271.93813 Z"
     style="fill:#ff6600;fill-opacity:1;stroke:#000000;stroke-width:1.3822px;stroke-linecap:butt;stroke-linejoin:miter;stroke-opacity:1" />
  <path
     id="path2838"
     d="M 273.31873,36.806103 V 16.059161 L 15.809958,273.91402 h 21.705706 z"
     style="fill:#ff9955;fill-opacity:1;stroke:#000000;stroke-width:1.3822px;stroke-linecap:butt;stroke-linejoin:miter;stroke-opacity:1" />
  <path
     style="fill:#ff7f2a;fill-opacity:1;stroke:#000000;stroke-width:1.3822px;stroke-linecap:butt;stroke-linejoin:miter;stroke-opacity:1"
     d="M 272.72676,36.806103 V 16.059161 L 530.23552,273.91402 h -21.70571 z"
     id="path2840" />
  <path
     style="fill:#d45500;fill-opacity:1;stroke:#000000;stroke-width:1.3822px;stroke-linecap:butt;stroke-linejoin:miter;stroke-opacity:1"
     d="m 273.31873,510.42919 v 20.74694 L 15.809958,273.32127 h 21.705706 z"
     id="path2842" />
  <path
     id="path2844"
     d="m 272.72676,510.42919 v 20.74694 L 530.23552,273.32127 h -21.70571 z"
     style="fill:#aa4400;fill-opacity:1;stroke:#000000;stroke-width:1.3822px;stroke-linecap:butt;stroke-linejoin:miter;stroke-opacity:1" />
  <path
     style="fill:none;stroke:#000000;stroke-width:8.2932;stroke-linecap:butt;stroke-linejoin:miter;stroke-miterlimit:4;stroke-dasharray:none;stroke-opacity:1"
     d="M 272.62392,14.146597 14.146603,272.97131 271.54694,530.71761 530.02426,271.89288 Z"
     id="path2846" />
  <g
     id="g6"
     transform="matrix(0.69339545,0.02489172,-0.02617677,0.70750128,169.34517,143.86051)">
    <g
       id="g5"
       transform="matrix(0.99920088,-0.03810991,0.03967941,0.99928637,-98.413542,-29.407117)">
      <path
         id="path3640"
         d="m 231.5778,60.795869 9.37293,-4.939746 -9.61958,-9.632508 H 63.851791 l -8.509642,8.521056 v 32.231865 l 9.434592,9.447264 4.501481,-9.447264 -5.919737,-5.927705 V 58.325982 l 4.439803,-3.951785 H 227.63132 Z"
         style="fill:#fefefe;fill-opacity:1;stroke:#000000;stroke-width:1.3822px;stroke-linecap:butt;stroke-linejoin:miter;stroke-opacity:1" />
      <path
         d="m 349.98498,53.379284 -5.91358,5.921524 v 21.741068 l 5.17978,5.186736 h 27.36647 V 107.2349 L 195.58455,290.97502 V 86.487949 h 30.08585 l 6.17257,-6.18086 V 58.306683 l -5.69776,-4.408725 H 67.816785 l -5.179774,5.186736 V 81.56055 l 5.266103,5.273181 H 95.442247 V 463.39077 l 5.179773,5.18673 h 31.29447 L 511.29178,76.589928 v -17.28912 l -5.91358,-5.921524 z"
         id="path3632"
         style="fill:none;stroke:#000000;stroke-width:1.3822px;stroke-linecap:butt;stroke-linejoin:miter;stroke-opacity:1" />
      <path
         id="path3644"
         d="m 68.109439,86.211527 -2.790601,9.081612 H 85.55065 l 11.162374,-9.081612 z"
         style="fill:#808080;fill-opacity:1;stroke:#000000;stroke-width:1.3822px;stroke-linecap:butt;stroke-linejoin:miter;stroke-opacity:1" />
      <path
         id="path3642"
         d="m 231.20831,59.665264 8.02297,-5.239393 v 31.785656 l -9.24384,9.256262 H 212.023 V 252.12568 l -16.39474,38.77153 V 86.211527 h 29.99888 l 5.58117,-4.540806 z"
         style="fill:#808080;fill-opacity:1;stroke:#000000;stroke-width:1.3822px;stroke-linecap:butt;stroke-linejoin:miter;stroke-opacity:1" />
      <g
         id="g4"
         transform="translate(0.19059956,2.748857)">
        <g
           id="g3">
          <path
             id="path3650"
             d="M 63.582135,42.246116 H 229.62244 l 10.11589,10.129471 V 83.46267 l -8.02295,9.780185 H 213.57652 V 247.63037 L 369.84974,93.242855 H 344.03675 L 334.96731,83.46267 V 50.629127 l 8.37179,-7.684438 h 168.13325 l 8.37177,8.383025 V 82.065497 L 139.62582,472.57504 H 96.371622 L 83.851506,465.33683 V 91.845696 H 62.8845 L 55.210378,84.161257 V 51.327714 Z"
             style="fill:none;stroke:#000000;stroke-width:27.644;stroke-linecap:butt;stroke-linejoin:miter;stroke-miterlimit:4;stroke-dasharray:none;stroke-opacity:1" />
          <g
             id="g2">
            <path
               id="path3646"
               d="m 94.976321,83.46267 v 377.23639 l 4.883537,5.5887 -3.829683,7.30858 -10.820927,-10.80152 V 93.242855 Z"
               style="fill:#fefefe;fill-opacity:1;stroke:#000000;stroke-width:1.3822px;stroke-linecap:butt;stroke-linejoin:miter;stroke-opacity:1" />
            <g
               id="g1">
              <path
                 id="path3638"
                 d="m 345.83556,93.662606 4.4398,-9.138527 -6.41305,-5.927706 V 58.343411 l 7.39968,-7.409646 H 505.6686 l 5.91973,7.903612 8.3863,-5.927706 -8.63295,-8.644561 H 345.34224 l -8.26296,8.274087 v 32.478834 l 8.57129,8.088856 M 211.50059,249.06093 195.37546,288.23929 377.40752,105.4686 V 83.733713 Z"
                 style="fill:#fefefe;fill-opacity:1;stroke:#000000;stroke-width:1.3822px;stroke-linecap:butt;stroke-linejoin:miter;stroke-opacity:1" />
              <path
                 d="m 349.79438,50.630427 -5.91358,5.921524 v 21.741068 l 5.17978,5.186736 h 27.36647 V 104.48604 L 195.39395,288.22616 V 83.739092 h 30.08585 l 6.17257,-6.18086 V 55.557826 l -5.69776,-4.408725 H 67.626185 l -5.179774,5.186736 v 22.475856 l 5.266103,5.273181 H 95.251647 V 460.64191 l 5.179773,5.18673 h 31.29447 L 511.10118,73.841071 v -17.28912 l -5.91358,-5.921524 z"
                 id="path3622"
                 style="fill:#f9f9f9;fill-opacity:1;stroke:#000000;stroke-width:1.3822px;stroke-linecap:butt;stroke-linejoin:miter;stroke-opacity:1" />
            </g>
          </g>
        </g>
      </g>
      <path
         id="path3636"
         d="m 511.77893,59.807922 8.42582,-4.87119 V 85.49461 L 138.04081,476.53208 H 97.467066 l 3.876424,-7.71296 h 31.07865 L 511.28563,77.097059 Z"
         style="fill:#808080;fill-opacity:1;stroke:#000000;stroke-width:1.3822px;stroke-linecap:butt;stroke-linejoin:miter;stroke-opacity:1" />
      <path
         id="path3652"
         d="m 376.84241,86.73545 -8.54618,8.906976 h -22.32476 l 5.23237,-8.906976 c 0.17442,0 25.63857,0 25.63857,0 z"
         style="fill:#808080;fill-opacity:1;stroke:#000000;stroke-width:1.3822px;stroke-linecap:butt;stroke-linejoin:miter;stroke-opacity:1" />
    </g>
  </g>
</svg>
